# xmcd
#
# Track frame offsets:
#	150
#	18007
#	43924
#	63225
#	78762
#	95590
#	107591
#	127577
#	145490
#	165359
#	179920
#	197734
#	213935
#	230979
#	249210
#	268726
#	286971
#	305585
#	322419
#
# Disc length: 4557 seconds
#
# Revision: 0
# Processed by: cddbd v1.4PL0 Copyright (c) Steve Scherf et al.
# Submitted via: dBpowerAMP V4.0
#
DISCID=1211cb13
DTITLE=Various Artist - Gold BG Songs
DYEAR=2002
DGENRE=Ballad
TTITLE0=Всичко било е на сън - Тони
TTITLE1=Ти ужасно закъсня - Георги Станчев
TTITLE2=Телефонна любов - Васил Найденов
TTITLE3=Вятърът спи - Ирина Флорин
TTITLE4=Син талисман - София
TTITLE5=Да те жадувам - Сигнал
TTITLE6=Още миг моя - Руслан
TTITLE7=Мога - Ирина Флорин
TTITLE8=Горчива луна - Руслан
TTITLE9=Вали - Васил Найденов
TTITLE10=Не ме обичаш вече - Сантра и Спенс
TTITLE11=Влюбен си - Станислава Димитрова
TTITLE12=Непознати улици - Мери Бойс Бенд
TTITLE13=Нищо - Мария Илиева
TTITLE14=Отровни стрели - Графа
TTITLE15=Давам всичко за теб - Графа
TTITLE16=Какво е времето вътре в мен - Антибиотика
TTITLE17=Сбогом - Сигнал
TTITLE18=Жива рана - Слави Трифонов
EXTD=
EXTT0=
EXTT1=
EXTT2=
EXTT3=
EXTT4=
EXTT5=
EXTT6=
EXTT7=
EXTT8=
EXTT9=
EXTT10=
EXTT11=
EXTT12=
EXTT13=
EXTT14=
EXTT15=
EXTT16=
EXTT17=
EXTT18=
PLAYORDER=
